<?xml version="1.0" encoding="utf-8"?>
<!-- Generator: Adobe Illustrator 15.0.2, SVG Export Plug-In . SVG Version: 6.00 Build 0)  -->
<!DOCTYPE svg PUBLIC "-//W3C//DTD SVG 1.1//EN" "http://www.w3.org/Graphics/SVG/1.1/DTD/svg11.dtd">
<svg version="1.1" id="レイヤー_1" xmlns="http://www.w3.org/2000/svg" xmlns:xlink="http://www.w3.org/1999/xlink" x="0px"
	 y="0px" width="78.863px" height="16.586px" viewBox="0 0 78.863 16.586" enable-background="new 0 0 78.863 16.586"
	 xml:space="preserve">
<g>
	<polygon fill="#333333" points="0,16.586 4.887,0.078 10.496,0.078 12.529,11.586 15.898,0.05 19.822,0.05 14.967,16.586 
		9.621,16.586 7.355,4.67 4.217,16.586 	"/>
	<polygon fill="#333333" points="17.029,16.586 21.969,0.05 26.592,0.05 21.707,16.586 	"/>
	<polygon fill="#333333" points="69.301,16.586 74.242,0.05 78.863,0.05 73.98,16.586 	"/>
	<polygon fill="#333333" points="23.938,16.573 28.863,0 33.629,0 31.57,6.906 38.283,0 43.811,0 36.486,7.295 37.74,7.295 
		40.229,13.889 44.438,0 49.09,0 47.121,6.906 53.746,0 59.408,0 51.955,7.265 53.207,7.265 55.713,14.092 59.92,0 71.826,0 
		70.93,2.968 63.859,2.968 62.607,6.549 69.496,6.549 68.604,9.502 61.801,9.502 60.549,13.262 68.066,13.262 67.082,16.573 
		51.596,16.573 48.666,7.443 46.828,7.443 44.078,16.573 36.225,16.573 33.182,7.354 31.367,7.354 28.504,16.573 	"/>
</g>
</svg>
