<?xml version="1.0" encoding="utf-8"?>
<!-- Generator: Adobe Illustrator 15.0.2, SVG Export Plug-In . SVG Version: 6.00 Build 0)  -->
<!DOCTYPE svg PUBLIC "-//W3C//DTD SVG 1.1//EN" "http://www.w3.org/Graphics/SVG/1.1/DTD/svg11.dtd">
<svg version="1.1" id="レイヤー_1" xmlns="http://www.w3.org/2000/svg" xmlns:xlink="http://www.w3.org/1999/xlink" x="0px"
	 y="0px" width="189.503px" height="17.051px" viewBox="0 0 189.503 17.051" enable-background="new 0 0 189.503 17.051"
	 xml:space="preserve">
<g>
	<path fill="#333333" d="M67.396,13.637c-0.096,0.108-0.627,0.616,0.437,1.577c1.063,0.958,1.503,1.284,1.845,1.414
		c0.347,0.13,0.972,0.486,1.567-0.029c0.59-0.523,0.208-0.902,0.06-1.084c-0.145-0.184-0.437-0.573-0.616-0.82
		c-0.176-0.248-0.458-0.545-0.008-1.165c0.447-0.633,0.353-0.575,0.353-0.575c-0.652,0.531-0.53,0.69-1.614,0.932
		c-0.508,0.008-0.688,0.019-0.99-0.196C68.128,13.474,67.489,13.53,67.396,13.637"/>
	<path fill="#333333" d="M27.373,6.509c-0.084-0.201-0.253-0.451-0.511-0.564c-0.249-0.113-1.099-0.475-1.202-0.901
		c-0.107-0.429-0.404-0.813-0.87-1.063c-0.466-0.251-0.993-0.383-1.249-0.633c-0.254-0.243-0.571-0.538-1.015-0.811
		c-0.445-0.27-1.082-0.385-1.653,0.093c-0.571,0.475-0.866,0.792-1.944,0.881c-1.08,0.087-4.023,0.383-4.743,0.449
		S8.278,4.524,7.749,4.524c-0.526,0-3.239,0.091-4.383-0.338l-3.23-0.674C-0.139,3.803,0.04,4.219,0.34,4.586
		c0.305,0.371,0.607,0.835,0.546,1.48c-0.054,0.647,0.177,1.11,0.668,1.466C2.046,7.887,2.638,8.086,2.912,8.19
		c0.274,0.111,0.839,0.266,0.809,0.681C3.691,9.289,3.565,9.379,3.461,9.53c-0.1,0.155-0.113,0.417,0.145,0.619
		c0.26,0.197,0.795,0.509,0.783,0.876c-0.015,0.371-0.291,0.88-0.594,1.049c-0.304,0.169-0.854,0.508-0.854,0.691
		c0,0.189,0.494,0.36,0.735,0.388c0.479,0.043,0.856,0.737,0.883,1.152c0.029,0.416,0.204,0.68,0.319,0.774
		c0.115,0.089,0.291,0.287,0.879,0.186c0.594-0.111,1.548-0.035,1.896,0.087c0.346,0.126,0.969,0.31,1.462,0.015
		c0.488-0.287,1.08-0.935,1.354-1.076c0.275-0.136,0.649-0.367,1.329-0.412c0.683-0.052,3.105-0.287,3.698-0.287
		c0.592,0,1.629-0.021,1.862-0.021c0.23,0,0.169-0.068,0.425,0.178c0.249,0.249,0.698,0.837,1.461,0.814
		c0.761-0.02,2.198-0.112,2.559,0c0.359,0.111,0.931,0.723,1.313,0.383c0.378-0.336,0.738-0.814,0.972-1.104
		c0.234-0.291,0.148-0.835,0.193-1.15c0.041-0.315,0.041-0.722,0.421-1.312c0.383-0.583,1.546-3.225,1.631-3.516
		c0.086-0.294,0.401-0.857,0.612-0.906C27.163,6.914,27.456,6.713,27.373,6.509 M20.387,7.635c-0.021,0.59-0.317,1.961-0.657,2.891
		c-0.339,0.92-1.017,0.699-1.419,0.699c-0.4,0-0.655,0.387-0.95,0.542c-0.297,0.158-1.019,0.109-1.46,0.109
		c-0.445,0-1.103,0.093-1.715,0.202c-0.616,0.111-1.885,0.427-3.113,0.496c-1.227,0.068-2.2-0.605-2.2-1.397
		c-0.045-1.439,0.974-1.33,1.438-1.375c0.47-0.045,0.907,0.202,1.312,0.362c0.401,0.159,1.377,0.159,1.993,0.133
		c0.612-0.021,0.718-0.111,1.735-0.155c1.017-0.045,1.145-0.497,1.145-0.653c0-0.158-0.235-0.386-0.575-0.408
		c-0.338-0.022-0.464-0.066-1.121-0.204c-0.656-0.136-1.141-0.293-1.775-0.136c-0.641,0.163-0.722,0.229-1.401,0.385
		C10.946,9.289,9.974,9.014,9.188,8.85c-0.783-0.151-0.95-0.471-0.995-0.896c0.086-0.975,1.781-1.424,2.476-1.445
		c0.701-0.022,2.373,0.182,3.451,0.182c1.08,0,1.124-0.271,1.759-0.971c0.635-0.701,1.143-1.062,2.074-1.175
		c1.696-0.111,2.371,1.13,2.479,1.444C20.535,6.308,20.409,7.05,20.387,7.635"/>
	<path fill="#333333" d="M63.448,11.905c-0.479-0.245-2.315-1.177-2.4-1.443c-0.082-0.275-0.054-0.154-0.282-0.123
		c-0.227,0.024-1.692-0.031-3.611-0.876c-1.92-0.842-4.603-1.803-5.421-2.468C50.915,6.336,50.804,6.308,51,5.675
		c0.169-0.272,0.705-0.363,1.525-0.124c0.818,0.241,1.553,0.692,1.891,0.814c0.338,0.121,0.761,0.21,1.101,0.15
		c0.339-0.06,0.933-0.39,1.13-0.664c0.196-0.264,0.338-0.54-0.113-0.571c-0.453-0.024-1.639-0.386-2.062-0.542
		c-0.427-0.145-0.479-0.117-1.354-0.301c-0.874-0.178-2.286-0.724-2.68-1.143c-0.396-0.42-1.076-0.568-1.499-0.598
		c-0.423-0.033-1.015-0.124-1.38-0.479c-0.366-0.367-0.653-0.397-1.047-0.397c-0.397,0-1.382,0.121-1.948,0.36
		c-0.308,0-0.534,0-0.679-0.146c-0.138-0.146-0.253-0.123-0.336,0c-0.084,0.116,0,0.508,0.169,0.601
		c0.167,0.091,0.167,0.181,0.113,0.392c-0.028,0.687-0.169,2.043-0.396,2.229c-0.227,0.177-0.197,0.239-0.763,0.117
		c-0.563-0.117-1.977-0.546-2.511-0.509c-0.534,0.03-1.751,0.447-2.26,0.598c-0.509,0.152-0.874,0.39-2.06,0.063
		c-0.482-0.123-0.677,0.18-0.534,0.39c0.137,0.211,0.646,0.814,1.041,1.021c0.395,0.215,1.245,0.779,2.062,0.693
		c0.819-0.089,1.751-0.508,2.145-0.635c0.394-0.118,0.876-0.322,1.299-0.265c0.423,0.059,0.932,0.146,0.901,0.599
		c-0.027,0.447,0.257,0.544-0.984,1.14c-1.245,0.604-8.244,4.816-10.107,5.204c-0.732,0.271-1.099,0.394-1.382,0.185
		c-0.284-0.216-0.423-0.245-0.592-0.06c-0.171,0.176-0.649,0.781-0.649,1.017c0,0.245,0.31,0.907,0.986,0.726
		c0.678-0.18,0.509-0.36,1.271-0.569c0.763-0.208,7.817-3.191,10.077-5.023c0.846-0.365,1.862-1.326,2.312-1.445
		c0.453-0.122,1.637-0.093,1.61,0.571c-0.029,0.665,0.311,1.113-0.846,1.113c-1.158,0-1.158,0-1.354-0.029
		c-0.198-0.029-0.198,0.206-0.029,0.421c0.17,0.208,0.931,0.965,1.299,1.142c0.367,0.186,1.211,0.421,0.901,0.965
		c-0.31,0.538-0.59,1.354-0.507,1.563c0.088,0.215,0.28,1.143,1.609,1.054c0.649-0.091,1.295-0.575,1.662-0.538
		c0.369,0.025,0.427,0.148,0.824,0.208c0.392,0.057,0.872-0.06,0.872-0.509c0-0.458-0.338-0.967-0.227-1.328
		c0.115-0.36,0.623-0.993,0.989-1.201c0.365-0.213,0.592-0.662,0.816-0.811c0.226-0.152,0.482-0.394-0.14-0.729
		c-0.621-0.328-1.525-0.747-1.495-1.347c0.027-0.606,0.479-1.27,1.72-0.874c1.245,0.394,7.06,2.769,7.987,3.245
		c0.932,0.488,2.713,1.208,3.08,1.356c0.364,0.15,0.987,0.15,1.156-0.122C63.786,12.383,63.927,12.14,63.448,11.905"/>
	<path fill="#333333" d="M77.49,8.967c0.266-0.029,0.863-0.191,1.24,0.024c0.165,0.046,1.07-0.216,0.983-0.69
		c-0.086-0.475-0.348-0.678-0.513-0.88c-0.167-0.198-0.392-0.601-0.612-0.933c-0.223-0.332-0.413-0.672,0.292-0.926
		c0.599-0.21,1.809-0.561,2.002-0.635c0.196-0.07,0.654-0.416,0.584-0.627c-0.068-0.22-0.736-0.594-0.874-0.713
		c-0.141-0.115-0.668-0.227-0.932-0.058c-0.182,0.177-0.157,0.191-0.489,0.204c-0.334,0.013-1.012,0.085-1.403-0.219
		c-0.39-0.303-0.46-0.369-0.137-0.847c0.111-0.042,0.248-0.443,0.208-0.621c-0.045-0.173-0.197-0.616-0.835-0.604
		c-0.639,0.01-2.709-0.072-2.964,0c-0.246,0.073-0.691,0.364-0.792,0.659c-0.095,0.305,0.015,0.854,0.297,0.994
		c0.249,0.206,0.347,0.29,0.193,0.476c-0.154,0.189-1.086,1.674-2.171,2.019c-1.527,0.289-2.319,0.564-2.6,0.664
		c-0.274,0.288-0.74,0.225,0.262,1.781c0.293,0.523,0.549,0.954,1.087,0.954c0.291-0.012,0.657-0.26,0.709-0.605
		c0.056-0.345,0.334-0.677,0.571-0.909c0.235-0.226,1.099-0.487,1.529,0.017c0.248,0.301,0.111,0.893-0.238,1.257
		c-0.349,0.356-0.235,0.549-0.933,0.575c-0.692,0.029-0.622,0.056-0.777,0.171c-0.152,0.114-1.484,1.226-1.585,1.326
		c-0.097,0.099-0.233,0.79,0,0.996c0.237,0.201,0.53,0.315,1.002,0.127c0.475-0.186,3.366-1.67,4.156-1.927
		C75.546,9.756,77.23,8.992,77.49,8.967 M73.282,5.755c0.082-0.163,0.857-0.813,1.499-1.301c0.266-0.169,1.236-0.691,1.474-0.818
		c0.235-0.13,0.82-0.048,1.039,0.099c0.223,0.146,0.266,0.503,0.223,0.79c-0.041,0.292-0.512,0.723-1.373,1.257
		c-0.862,0.53-2.028,0.46-2.531,0.445C73.108,6.212,73.197,5.912,73.282,5.755 M73.876,9.285c-0.25-0.438,0.516-1.182,0.905-1.458
		c0,0,0.11-0.074,0.859-0.435c0.752-0.36,1.561,0.204,1.713,0.349c0.148,0.142,0.148,0.23-0.111,0.342
		c-0.266,0.122-1.826,0.866-2.351,1.081C74.362,9.381,73.962,9.485,73.876,9.285"/>
	<path fill="#333333" d="M80.562,11.161c-0.499-0.021-1.594-0.439-1.765-0.662c-0.163-0.223-0.734-0.572-0.973-0.375
		c-0.17,0.152,0.309,0.792,0.548,1.017c0.235,0.223,0.93,0.816,1.787,0.694c0.855-0.129,1.145-0.273,1.07-0.472
		C81.161,11.161,81.064,11.192,80.562,11.161"/>
	<path fill="#333333" d="M81.736,6.264c0.095,0.497,0.04,0.823,0.04,1.072c0,0.245,0.29,0.493,0.525,0.664
		c0.239,0.177,1.167,0.718,1.501,0.794c0.338,0.072,0.913,0.247,0.646-0.223c-0.304-0.53-0.411-1.209-0.148-1.653
		c0.262-0.443,0.721-0.866,0.742-1.015c0.041-0.05,0.036-0.115-0.081-0.025c-0.113,0.089-0.813,0.638-1.008,0.701
		c-0.198,0.064-0.47,0.152-0.763,0.022c-0.293-0.127-0.709-0.464-0.961-0.657c-0.249-0.196-0.874-0.4-0.728-0.101
		C81.646,6.149,81.736,6.264,81.736,6.264"/>
	<path fill="#333333" d="M95.767,12.546c-0.382-0.146-2.289-0.493-2.693-0.738c-0.401-0.247-0.62-0.746-1.146-0.696
		c-0.522,0.049-0.903,0.474-1.285,0.521c-0.379,0.051-0.785,0.148-1.051,0.051c-0.256-0.099-0.664-0.247-0.642-0.641
		c0.022-0.396,0.334-0.92,0.813-0.92c0.475,0,1.736-0.041,1.736-0.538c-0.021-0.249-0.404-0.394-0.761-0.618
		c-0.357-0.221-0.811-0.417-1.146-0.47c-0.33-0.05-0.761-0.393-0.712-0.965c0.048-0.563-0.072-0.712,0.355-0.668
		c0.431,0.054,1.169,0.026,1.552,0.175c0.382,0.152,1.024,0.297,1.31,0.152c0.286-0.152,0.738-0.645,1.169-0.548
		c0.427,0.099,0.88,0.297,1.191,0.247c0.308-0.05,0.62-0.148,0.449-0.493c-0.163-0.346-0.668-1.088-1.692-1.604
		c-1.022-0.523-1.262-0.891-1.715-0.868C91.045,3.95,90.69,4.004,90.69,4.227s0.354,0.539,0.312,0.912
		C90.954,5.507,90.598,6,90.216,6.128c-0.385,0.124-1.336,0.493-1.336-0.521c0-1.009,0.143-1.751,0.642-2.048
		c0.501-0.297,0.859-0.771,1.551-0.721c0.69,0.049,1.119,0.078,1.381,0.346c0.264,0.276,0.692,0.549,0.787,0.153
		c0.095-0.396,0.118-0.499,0-0.742c-0.121-0.25-0.334-0.421-0.692-0.666c-0.356-0.252-1.546-1.188-2.144-1.135
		C89.81,0.84,89.336,0.89,88.88,1.41c-0.453,0.52-0.688,0.913-1.574,1.062c-0.883,0.145-1.833,0.47-2.69,0.416
		c-0.86-0.049-2.313-0.218-2.192,0.278c0.023,0.245,0.524,0.196,0.905,0.217c0.382,0.028,1.12-0.099,1.406,0.225
		c0.286,0.319,0.429,0.546,0.548,0.862c0.12,0.325,0.38,0.645,0.714,0.919c0.334,0.268,0.765,0.516,0.765,1.334
		c0,0.811,0.019,2.344-0.145,2.57c-0.167,0.217,0.096,0.415-0.668,0.489c-0.763,0.074-2.431,0.42-2.643,0.668
		c-0.217,0.247-0.431,0.494-0.026,0.516c0.405,0.026,0.309-0.021,0.787-0.196c0.475-0.173,1.785-0.468,2.049-0.369
		c0.26,0.099,0.452,0.274,0.452,0.761c0,0.495-0.262,1.464-2.026,1.731c-1.763,0.274-3.619,0.475-4.264,0.547
		c-0.646,0.072-2.718,0.272-3.381-0.054c-0.669-0.317-1.788-1.037-2.196-1.381c-0.401-0.349-0.882-0.398-0.975-0.271
		c-0.096,0.119-0.31,0.101-0.12,0.397c0.189,0.295,1.286,1.206,1.788,1.555c0.498,0.341,1.333,0.54,1.9,0.54
		c0.575,0,1.365,0.176,1.696,0.395c0.334,0.227,1.046,0.295,1.454,0.295c0.404,0,3.266-0.048,3.622-0.048s0.88-0.173,1.381-0.592
		c0.501-0.418,0.928-1.01,1.215-0.989c0.284,0.028,0.67,0.375,1.171,0.325c0.499-0.052,0.854-0.297,1.163-0.496
		c0.313-0.196,0.573-0.395,1.026-0.395s1.789,0.025,2.312,0.269c0.525,0.247,2.004,0.841,2.337,0.915
		c0.334,0.074,0.74,0,1.021-0.047c0.286-0.05,0.932-0.027,0.932-0.491C96.624,12.892,96.147,12.691,95.767,12.546"/>
	<path fill="#333333" d="M104.532,2.9c0.293,0.254,0.567,0.736,1.317,0.688c0.748-0.045,1.699,0,2.014-0.045
		c0.316-0.048,0.656-0.278,0.161-0.577c-0.497-0.297-0.956-0.736-1.34-0.848c-0.384-0.115-1.159-0.254-1.34-0.441
		c-0.18-0.18-0.813-0.846-1.466-0.779c-0.573,0-0.66,0.549-0.365,0.942C103.807,2.23,104.243,2.642,104.532,2.9"/>
	<path fill="#333333" d="M102.84,7.06c0.49,0.163,0.921,0.163,1.332,0.093c0.408-0.072,0.726-0.093,1.088,0.024
		c0.359,0.116,0.631,0.209,0.79,0.209c0.167,0,0.798,0,0.319-0.439c-0.479-0.438-0.93-0.761-1.109-0.872
		c-0.182-0.117-0.68-0.233-1.247-0.188c-0.565,0.047-1.291,0.14-1.493,0.047c-0.21-0.093-0.317-0.183-0.682-0.346
		c-0.363-0.159-0.953-0.341-1.269-0.137c-0.23,0.207-0.186,0.595,0.337,0.854C101.434,6.557,102.335,6.899,102.84,7.06"/>
	<path fill="#333333" d="M127.67,8.142c-0.245-0.115-0.864-0.438-1.31-0.624c-0.457-0.182-1.637-0.412-2.067-0.438
		c-0.431-0.021-1.295-0.251-1.655-0.437c-0.363-0.184-0.811-0.113-0.837-0.367c-0.023-0.25,0.183-0.163,0.75-0.295
		c0.564-0.141,1.653-0.53,2.039-0.553c0.379-0.024,0.61-0.531,0.431-0.713c-0.186-0.188-0.701-0.091-1.182,0.134
		c-0.478,0.233-1.813,0.763-2.038,0.854c-0.225,0.093-0.681,0.553-1.176,0.297c-0.501-0.249-1.295-0.62-1.631-0.8
		c-0.346-0.189-1.092-0.575-0.275-0.969c0.815-0.392,0.975-0.157,1.132-0.347c0.156-0.182,0.204-0.482,0.138-0.62
		c-0.066-0.137-0.976-0.411-0.454-0.623c0.521-0.206,0.473-0.065,0.994-0.227c0.525-0.163,0.614-0.137,1.089-0.115
		c0.479,0.022,1.091,0.253,1.429,0.435c0.34,0.189,1.134,0.603,1.447,0.761c0.323,0.161,1.342,0.324,1.41,0.021
		c0.065-0.295,0.019-0.662-0.322-0.796c-0.334-0.144-1.063-0.696-1.377-0.696c-0.319,0-0.772-0.021-1.022-0.229
		c-0.249-0.206-1.111-0.808-1.631-0.808c-0.518,0-1.113,0.349-1.292,0.531c-0.184,0.184-0.408,0.485-0.792,0.46
		c-0.388-0.021-0.77-0.301-1.175-0.598c-0.413-0.299-1.207-0.757-1.907-0.872c-0.701-0.115-1.429-0.028-1.608-0.161
		c-0.18-0.144-0.451-0.325-0.771-0.346c-0.315-0.025-0.612,0.295-0.66,0.507c-0.041,0.208,0.117,0.345,0.36,0.505
		c0.252,0.159,0.685,0.551,0.798,0.734c0.116,0.186,0.467,0.356-0.134,0.553c-0.639,0.206-0.907,0.093-1.156-0.113
		c-0.248-0.209-1.297,0.043-1.567,0.229c-0.313,0.113-0.498,0.113-0.742,0.045c-0.253-0.067-1.314-0.342-1.521-0.091
		c-0.206,0.25-0.022,0.365,0.297,0.555c0.312,0.182,1.061,0.248,1.514,0.134c0.453-0.113,1.225-0.257,1.52-0.092
		c0.299,0.162,0.681,0.529,0.681,0.919c0,0.394-0.111,0.924-0.701,0.965c-0.59,0.048-1.857,0.093-2.06,0.208
		c-0.215,0.118-0.768,0.371-1.136,0.301c-0.359-0.067-0.452,0.021-0.477,0.163c-0.024,0.137,0.156,0.53,0.406,0.592
		c0.253,0.072,0.55,0.213,0.438,0.417c-0.119,0.204-0.575,1.426-1.39,1.405c-0.815-0.022-0.451,0-0.429-0.142
		c0.021-0.135-0.115-0.063-0.278-0.022c-0.152,0.051-1.309,1.335-1.626,1.609c-0.317,0.278-1.019,1.477-1.271,1.633
		c-0.243,0.163-1.926,2.004-2.104,2.024c-0.184,0.159-0.503,0.577-0.862,0.186c-0.364-0.392-0.498-0.577-0.498-0.759
		c0-0.185-0.157,0.023-0.182,0.182c-0.023,0.159-0.252,0.876-0.341,1.064c-0.086,0.183,0.48,0.776,0.705,0.798
		c0.226,0.026,0.545,0.394,0.905,0.577c0.361,0.184,1.34,0.253,1.604,0.366c0.276,0.114,0.592,0.066,0.841,0.256
		c0.251,0.182,0.499,0.324,0.635,0.091c0.134-0.232,0.022-0.46-0.182-0.692c-0.202-0.229-0.631-0.438-0.243-1.15
		c0.375-0.712,0.495-0.846,0.74-1.447c0.252-0.598,0.252-0.916,0.252-1.262c0-0.347,0.134-1.198,0.542-1.66
		c0.41-0.459,0.843-0.919,1.021-0.919c0.182,0,0.814-0.044,1.156-0.182c0.339-0.141,1.724-1.08,1.653-2.069
		c0.137-0.304,0.204-0.551,0.679-0.691c0.48-0.138,1.271-0.388,1.544-0.113c0.274,0.274,0.408,0.321,0.208,0.692
		c-0.208,0.367-0.342,1.102-0.909,1.169c-0.57,0.074-1.106,0.137-1.225,0.229c-0.115,0.091-0.134,0.392,0.133,0.505
		c0.27,0.115,0.612,0.392,1.113,0.278c0.498-0.117,0.36-0.186,0.655-0.438c0.299-0.255,0.27-0.317,0.476-0.317
		c0.205,0,0.658-0.028,0.974,0.021c0.317,0.042,0.729,0.135,0.843,0.297c0.111,0.159,0.571,0.337,0.111,0.482
		c-0.954,0.3-2.238,0.506-2.925,0.646c-0.677,0.134-0.742,0.093-1.338,0.044c-0.584-0.044-0.877-0.114-1.107-0.133
		c-0.229-0.026-0.635,0.155-0.229,0.365c0.414,0.206,1.358,0.781,1.09,2.043c-0.275,1.267-0.315,1.658-0.631,1.889
		c-0.321,0.23-0.8,1.173-1.251,1.031c-0.453-0.135-0.657-0.066-0.431,0.164c0.225,0.229,0.566,0.46,0.843,0.482
		c0.267,0.023,0.608,0.07,0.924-0.206c0.319-0.276,1.132-0.808,1.404-1.06c0.273-0.249,0.229-0.9,0.255-1.15
		c0.019-0.249,0.019-0.553,0.315-0.735c0.293-0.186,0.52-0.439,1.376-0.46c0.869-0.022,3.428-0.252,3.927-0.297
		c0.493-0.046,1.447-0.274,1.763-0.274c0.319,0,0.901-0.097,0.887,0.616c-0.022,0.901,0.251,2.052,0.019,2.439
		c-0.176,0.371-0.342,0.414-1.062,0.274c-0.728-0.133-1.113-0.254-1.431-0.388c-0.313-0.137-0.562,0.021-0.225,0.255
		c0.346,0.229,0.973,0.551,1.27,0.8c0.295,0.256,0.683,0.272,1.087,0.322c0.408,0.049,0.936,0.301,1.27,0.55
		c0.338,0.256,1.18,1.083,1.474,0.186c0.295-0.895,0.271-3.01,0-3.678c-0.275-0.664-0.253-1.678,0.048-2.022
		c0.289-0.344,0.816-0.802,1.017-1.014c0.208-0.207,0.16-0.644-0.182-0.757c-0.34-0.118-1.225-0.299-1.811-0.783
		c-0.592-0.48-1.387-0.712-1.11-1.102c0.156-0.14,0.591-0.186,0.995,0.046c0.408,0.23,1.113,0.664,1.907,0.942
		c0.79,0.277,1.532,0.319,2.171,0.641c0.635,0.323,1.544,0.482,1.792,0.553c0.245,0.07,0.769,0.121,0.95-0.113
		C128.349,8.417,127.917,8.253,127.67,8.142 M116.886,3.403c0,0,0.34,0.141,0.476,0.369c0.133,0.232-0.115,0.437-0.297,0.484
		c-0.179,0.045-0.271,0.115-0.542,0.182c-0.271,0.07-0.683-0.019-0.932-0.066c-0.249-0.043-0.178-0.186-0.178-0.319
		c0-0.141,0.337-0.232,0.724-0.536C116.318,3.265,116.677,3.265,116.886,3.403 M114.574,2.991c0.382-0.271,0.567-0.438,0.839-0.414
		c0.271,0.022,0.838,0.255,0.155,0.645c-0.227,0.182-0.25,0.322-0.338,0.482c-0.089,0.163,0.022,0.349-0.363,0.093
		C114.479,3.543,114.187,3.265,114.574,2.991 M114.459,7.407c-0.816-0.044-0.861-0.301-0.881-0.508
		c-0.024-0.204,0.064-0.438,0.248-0.594c0.18-0.162,0.455-0.761,0.61-0.995c0.16-0.227,0.816-0.39,1.177-0.412
		c0.404-0.048,0.909,0.303,1.136,0.412c0.225,0.119,0.315,0.833,0.225,0.995c-0.088,0.155-0.314,0.32-0.548,0.688
		c-0.221,0.37-0.221,0.344-0.557,0.394C115.527,7.425,115.273,7.452,114.459,7.407 M113.057,10.235
		c-0.319,0.091-0.453,0.299-0.932,0.712c-0.479,0.412-0.546-0.272-0.52-0.597c-0.049-0.505,0.79-0.896,1.063-0.969
		c0.276-0.07,0.77-0.111,1.091-0.253c0.31-0.137,0.768-0.091,1.132-0.091c0.361,0,0.225,0.069,0.274,0.273
		c0.035,0.213-0.325,0.349-0.614,0.51c-0.297,0.161-0.501,0.208-0.82,0.208S113.368,10.142,113.057,10.235 M118.308,10.208
		c-0.29,0.07-0.583,0.117-1.018,0.234c-0.43,0.111-0.864,0.295-1.45,0.438c-0.587,0.134-1.22,0.066-1.633,0.091
		c-0.406,0.024-0.629,0-0.653-0.188c-0.022-0.178,1.043-0.549,1.451-0.709c0.408-0.163,0.608-0.207,1.083-0.46
		c0.091-0.118,1.637-0.924,1.859-0.924c0.225,0,0.907,0.397,1.021,0.896C119.079,10.097,118.607,10.142,118.308,10.208
		 M119.739,6.763c-0.186,0.024-0.341,0.206-0.456,0.297c-0.109,0.093-0.156,0.163-0.182,0.326c-0.022,0.162-0.089,0.295-0.223,0.527
		c-0.138,0.229-0.431,0.317-0.977,0.317c-0.541,0-0.86-0.317-0.905-0.527c-0.044-0.206,0.497-0.827,0.75-1.124
		c0.085-0.212,0.746-0.624,0.972-0.646c0.227-0.022,0.795,0.209,1.156,0.434C120.239,6.602,119.922,6.735,119.739,6.763"/>
	<path fill="#333333" d="M122.096,3.796c-0.318,0.301-1.272,0.92-1.406,0.987c-0.137,0.066-0.497,0.186-0.431,0.32
		c0.073,0.144,0.249,0.097,0.479,0.024c0.223-0.07,0.724-0.371,1.174-0.527c0.455-0.163,0.548-0.163,0.748-0.252
		c0.204-0.093,0.569-0.438,0.161-0.67C122.411,3.451,122.209,3.704,122.096,3.796"/>
	<path fill="#333333" d="M160.768,7.34c-0.543,0-2.045-0.199-3.004-0.367c-0.957-0.167-2.074-0.472-2.85,0.029
		c-0.781,0.509-0.026,0.561-1.086,0.534c-1.062-0.025-2.512,0.31-2.928,0.31s-1.477-0.254-1.765-0.955
		c-0.282-0.699-0.542-1.119,0.266-1.458c0.802-0.34,1.811-0.449,2.301-0.368c0.491,0.086,2.431,0.338,2.957,0.282
		c0.517-0.056,0.851-0.254,1.214-0.534c0.362-0.278,0.854-0.699,1.321-0.757c0.462-0.052,1.269-0.422,0.52-1.15
		c-0.752-0.731-0.857-0.96-1.243-1.154c-0.392-0.191-0.831-0.386-1.065-0.616c-0.229-0.227-0.67-0.278-0.909-0.169
		c-0.228,0.113-1.139,0.594-1.365,0.678c-0.237,0.081-0.438,0.056-0.806-0.117c-0.359-0.161-0.623-0.052-0.803,0.117
		c-0.185,0.167-0.154,0.473,0.079,0.672c0.23,0.198,1.004,1.068,0,1.487c-1.013,0.42-3.396,1.236-3.525,1.63
		c-0.567-0.06-1.918-0.229-1.893-0.983c0.028-0.758,1.169-0.787,1.406-0.735c0.227,0.062,0.748,0.062,0.896,0.175
		c0.163,0.115,0.548,0.167,0.627,0.025c0.08-0.139,0.053-0.361-0.157-0.504c-0.21-0.14-0.41-0.646-0.772-0.646
		c-0.367,0-1.708,0.195-2.538-0.225c-0.831-0.423-1.559-0.594-2.152-1.174c-0.598-0.59-1.321-1.128-2.486-0.735
		c-1.167,0.396-1.814,0.705-2.252,0.896c-0.442,0.198-0.672,0.453-0.257,0.707c0.416,0.25,0.724,0.33,0.928,0.726
		c0.208,0.396,0.026,1.07-0.854,1.124c-0.88,0.054-1.966,0.2-2.455,0.282c-0.497,0.084-1.612,0.388-2.338,0.418
		c-0.724,0.029-1.369,0-1.682-0.082c-0.308-0.085-1.013-0.138-1.161,0.082c-0.159,0.228,0.101,0.59,0.642,0.675
		c0.546,0.086,1.092,0.197,1.661,0.197c0.565,0,2.232-0.505,3-0.451c0.783,0.058,2.074,0.507,2.074,1.152s-0.39,1.235-0.907,1.351
		c-0.487,0.223-0.384,0.394-0.313,0.584c0.082,0.199,0.416,0.28,0.703,0.311c0.288,0.029,0.596,0.31,0.624,0.563
		c0.025,0.255-0.258,0.702-0.855,0.733c-0.754,0.25-2.387,0.501-2.721,0.67c-0.339,0.171-1.087,0.561-1.94,0.392
		c-0.854-0.165-2.49-0.643-2.59,0.113c-0.106,0.757,0.724,0.757,1.241,0.816c0.52,0.054,1.685,0.337,2.586,0
		c0.911-0.34,1.35-0.591,1.895-0.62c0.544-0.029,0.52-0.141,0.884-0.141c0.361,0,0.464-0.056,0.281,0.254
		c-0.178,0.306-0.856,1.49-1.555,2.05c-0.699,0.561-1.581,1.039-2.146,1.288c-0.392,0.196-1.301,0.734-1.01,0.928
		c0.288,0.196,0.517,0.227,1.268,0c0.748-0.223,1.681-1.123,2.173-1.518c0.491-0.39,1.189-1.427,1.816-2.353
		c0.62-0.93,1.527-1.799,1.866-1.88c0.334-0.089,1.188-0.258,1.344-0.145c0.158,0.113,0.184,0.027,0.184,0.395
		c0,0.362-0.08,1.6,0,1.938c0.072,0.334,0.412,0.728,0.365,1.232c-0.056,0.508,0.047,1.039-0.784,0.675
		c-0.826-0.367-1.368-0.619-1.655-0.757c-0.284-0.14-0.566-0.14-0.336,0.196c0.233,0.334,0.75,1.15,0.802,1.57
		c0.056,0.423,0.159,0.842,1.113,0.93c0.961,0.079,0.749,0.023,1.165,0.139c0.416,0.109,1.27,0.193,1.711-0.646
		c0.439-0.843,0.182-1.295-0.182-1.88c-0.362-0.59,0.023-1.126,0.231-1.378c0.208-0.251,0.34-0.618,0.855-0.199
		c0.52,0.422,0.649,0.759,0.909,0.93c0.26,0.169,0.646,0.672,0.798,0.338c0.159-0.338,0.363-0.787-0.334-1.268
		c-0.701-0.471-2.202-1.4-1.087-1.879c1.115-0.472,1.658-0.561,1.553-0.779c-0.105-0.23-0.544-0.426-0.829-0.511
		c-0.286-0.08-0.672-0.109-0.958-0.31c-0.283-0.199-0.436-0.729-0.237-0.868c0.215-0.142,0.394-0.451,0.134-0.731
		c-0.256-0.28-0.156-0.479,0.13-0.62c0.285-0.137,1.266-0.56,1.655-0.56s1.559,0.029,1.736,0.029
		c-0.104,0.53-0.026,0.983,0.394,1.321c0.414,0.334,0.538,0.561,0.099,0.729c-0.438,0.166-0.853,0.531-0.648,0.729
		c0.21,0.2,0.494,0.221,0.468,0.954c-0.022,0.73,0,1.347-0.083,2.305c-0.076,0.949-0.385,1.51-0.589,1.738
		c-0.207,0.225-0.959,1.066-0.724,1.204c0.229,0.145,0.746,0.033,1.214-0.249c0.462-0.285,1.785-1.375,1.785-1.885
		c0-0.501-0.182-1.707-0.152-2.104c0.026-0.393,0.571-1.233,1.301-1.172c0.72,0.05,1.264,0.33,1.913,1.031
		c0.644,0.707,1.109,0.987,1.082,1.462c-0.016,0.476-0.645,2.722-0.774,3.313c-0.126,0.588-0.206,1.041-0.104,1.375
		c0.104,0.334,0.208,0.588,0.753,0.281c0.548-0.308,1.633-0.84,1.997-0.84c0.359,0,1.757-0.478,1.004-1.687
		c-0.75-1.21-0.778-2.558-0.75-3.088c0.027-0.534,0.672-3.229,2.692-2.612c0.412,0.174,0.627,0.056,0.775,0.285
		c0.158,0.22,0.289,0.36,0.598,0.108c0.312-0.249,0.675-0.728,0.883-0.869C161.235,7.93,161.313,7.34,160.768,7.34 M139.945,4.724
		c0.181-0.134,0.648-0.189,0.88-0.022c0.233,0.171-0.312,0.392-0.441,0.561c-0.13,0.171-0.416,0.369-0.646,0.141
		C139.504,5.182,139.738,4.924,139.945,4.724 M141.864,6.583c-0.26,0.168-0.546,0.419-0.963,0.558
		c-0.412,0.142-0.878,0.03-1.212-0.079c-0.338-0.119-0.135-0.256-0.078-0.534c0.053-0.284,0.954-0.676,1.29-0.954
		c0.621-0.59,1.345-0.282,1.631,0.027C142.818,5.912,142.122,6.413,141.864,6.583"/>
	<path fill="#333333" d="M189.127,3.355c0.148-0.13,0.601-0.876,0.239-1.292c-0.362-0.41-0.942-0.592-1.254-0.544
		c-0.314,0.051-0.849,0.185-1.063-0.198c-0.221-0.39-1.021-0.575-1.284-0.441c-0.264,0.128-1.258,0.616-1.6,0.746
		c-0.338,0.126-1.714,0.231-2.008,0.361c-0.285,0.13-0.553,0.258-1.042,0.13c-0.479-0.13-1.934-0.228-2.442-0.18
		c-0.505,0.05-0.768-0.08-1.107,0.05c-0.344,0.13-0.726,0.414-1.089,0.44c-0.364-0.053-1.144-0.387-1.772-0.591
		c-0.627-0.211-1.274-0.649-1.64-0.753c-0.366-0.103-0.971,0.026-1.21,0.26c-0.247,0.227-0.728,0.794-0.997,0.876
		c-0.263,0.078-1.811,0.8-2.245,0.825c-0.434,0.024-1.258,0-1.573,0.078c-0.317,0.076-1.262,0.254-1.818-0.13
		c-0.549-0.388-0.728-0.514-0.844-0.67c-0.121-0.155-0.317-0.134-0.317,0c0,0.124-0.019,0.696-0.019,0.696
		c-0.074,0.666,0.145,1.367,0.575,1.729c0.438,0.362,0.872,0.589,1.189,0.748c0.31,0.15,1.015,0.46,0.654,1.544
		c-0.363,1.084-0.92,4.717-0.894,5.466c0.019,0.75-0.127,0.802-0.294,0.854c-0.17,0.051-0.289,0.181-0.415,0.078
		c-0.117-0.105-0.186,0.074-0.089,0.227c0.089,0.156,0.239,0.361,0.359,0.573c0.117,0.2,0.36,0.614,0.216,1.002
		c-0.142,0.386,0.056,1.447,0.948,1.397c0.892-0.058,2.466-0.49,2.128-1.651c-0.338-1.165-0.779-1.27-0.631-3.251
		c0.143-1.989,0.482-2.969,0.559-3.169c0.072-0.212,0.021-0.236,0.41-0.288c0.388-0.052,2.681-0.516,3.194-0.77
		c0.505-0.26,0.746-0.416,1.158-0.416s1.158,0.18,1.136-0.619c0.022-0.568,0.534-2.034,0.897-2.446
		c0.36-0.413,0.438-0.649,0.849-0.724c0.406-0.077,0.603-0.233,0.967-0.545c0.363-0.311,0.747-0.59,0.92-0.101
		c0.167,0.488,0.575,1.759,0.363,1.989c-0.334,0.358,0.071,0.223,0.041,0.575c-0.025,0.417,0.189,0.796,0.171,1.214
		c-0.019,0.365,0.861,0.066,1.544-0.127c0.679-0.182,2.117,0.09,2.575,0.142c0.456,0.052,1.328,0.1,1.569,0.1
		c0.245,0,0.29,0.026,0.29,0.313c0,0.279-0.123,0.825-0.093,1.621c0.022,0.806-0.175,2.501-0.072,2.709
		c0.095,0.204,0.217,1.084,0.384,1.626c0.169,0.541,0.122,1.933-0.917,1.392c-1.044-0.546-1.673-0.851-1.862-0.902
		c-0.193-0.052-0.534-0.104-0.293,0.182c0.237,0.278,1.647,1.598,2.278,1.96c0.627,0.361,2.074,1.237,2.657,1.31
		c0.582,0.082,2.324,1.014,2.176-0.948c-0.235-0.981-0.555-2.117-0.677-2.631c-0.119-0.516-0.313-2.373-0.29-2.861
		c0.028-0.493,0.099-1.577,0-2.011c-0.093-0.443-0.408-1.445-0.388-1.806c0.03-0.362,0.146-1.058,0.581-1.548
		C188.352,4.46,188.982,3.485,189.127,3.355 M169.826,3.284c0.089-0.107,1.189-0.467,1.334-0.512
		c0.14-0.045,0.397-0.136,0.462,0.361c0.072,0.494-0.434,0.781-0.788,0.904c-0.354,0.116-0.678,0.282-1.022,0.375
		c-0.334,0.093-0.274,0.107-0.69-0.275C168.561,3.642,169.563,3.399,169.826,3.284 M171.735,6.379
		c-0.113,0.293-0.944,0.425-1.227,0.557c-0.282,0.141-0.846,0.211-1.269,0.256c-0.424,0.048-0.468-0.375-0.44-0.587
		c0.028-0.207,0.356-0.885,0.494-1.231c0.141-0.346,0.312-0.375,0.621-0.523c0.115-0.111,1.019-0.229,1.214-0.245
		c0.2-0.011,0.732,0.453,0.835,0.724C172.061,5.598,171.851,6.097,171.735,6.379 M183.872,5.837c-0.223,0.044-0.493,0-0.942,0.015
		s-0.876-0.087-1.002-0.342c-0.128-0.254,0.382-0.499,0.85-0.601c0.305-0.106,0.802,0.011,1.113,0.118
		c0.307,0.103,0.419,0.229,0.449,0.405C184.365,5.615,184.097,5.792,183.872,5.837 M184.437,3.84
		c-0.253,0.405-1.117,0.509-1.678,0.598c-0.564,0.091-0.917-0.272-0.959-0.479c0-0.196,0.128-0.479,0.449-0.753
		c0.328-0.27,0.905-0.356,1.184-0.494c0.283-0.139,0.963,0.06,1.145,0.271C184.765,3.191,184.692,3.436,184.437,3.84"/>
	<path fill="#333333" d="M181.895,7.526c-0.405,0.015-0.9,0.148-1.11,0.104c-0.209-0.044-0.594-0.044-0.779-0.148
		c-0.186-0.111-0.549-0.359-0.775-0.334c-0.229,0.033-0.946,0.105-1.31,0.182c-0.365,0.071-0.948,0.227-1.258,0.227
		c-0.311,0-0.928,0.221-1.158,0.332c-0.223,0.103-1.113,0.449-1.113,0.449c-0.563,0.184-1.809,0.61-2.134,0.61
		c-0.323,0-0.687-0.087-0.991-0.174c-0.293-0.09-1.32,0.087-1.221,0.516c0.093,0.419,0.067,0.549,0.605,0.449
		c0.538-0.111,1.085-0.245,1.521-0.317c0.438-0.078,0.818-0.243,1.046,0.017c0.227,0.256,0.496,0.51,0.408,0.992
		c-0.085,0.479-0.111,1.338-0.252,1.62c-0.145,0.289-0.438,0.738-0.961,0.787c-0.521,0.044-1.34,0.419-1.34,0.901
		c0,0.479,0.396,1.024,0.987,0.973c0.594-0.045,0.729-0.193,1.113-0.193c0.38,0,0.875,0.033,1.229-0.196
		c0.354-0.225,0.715-0.841,1.127-0.989c0.41-0.152,0.988-0.286,1.373-0.271c0.38,0.016,1.054,0.016,1.087,0.494
		c0.022,0.449-0.171,0.603-0.284,0.692c-0.113,0.089-0.241,0.524-0.151,0.708c0.079,0.181,0.606,0.618,0.743,0.779
		c0.142,0.171,0.408,0.523,0.649,0.523c0.238,0,0.509-0.072,0.62-0.371c0.119-0.301,0.382-0.932,0.497-1.139
		c0.107-0.212,0.188-1.177,0.156-1.389c-0.03-0.211-0.145-2.967-0.067-3.173c0.067-0.215-0.219-0.87,0.387-1.217
		c0.608-0.349,0.988-0.798,1.233-0.92C182.013,7.93,182.31,7.511,181.895,7.526 M176.959,12.354
		c-0.142,0.042-0.311,0.221-0.666,0.39c-0.353,0.165-0.559,0.223-0.96,0.254c-0.394,0.033-0.592-0.136-0.633-0.439
		c-0.039-0.297,0.396-0.552,0.566-0.641c0.167-0.093,0.353-0.169,0.716-0.169c0.13,0,0.521-0.029,0.765-0.029
		c0.241,0,0.365,0.155,0.41,0.302C177.2,12.168,177.104,12.309,176.959,12.354 M177.104,10.996
		c-0.163,0.229-0.568,0.376-1.078,0.421c-0.507,0.048-0.548-0.029-0.777-0.087c-0.225-0.06-0.309-0.305-0.319-0.544
		c-0.019-0.239,0.486-0.644,0.872-0.658c0.583-0.156,1.212,0.059,1.388,0.219C177.355,10.517,177.254,10.773,177.104,10.996
		 M177.396,9.289c-0.089,0.19-0.551,0.219-1.384,0.204c-0.835-0.014-1.058-0.315-1.103-0.523c-0.041-0.212,0.085-0.271,0.208-0.438
		c0.13-0.166,0.627-0.282,0.813-0.313c0.122-0.015,0.549,0,0.928,0.03c0.382,0.027,0.649,0.359,0.696,0.508
		C177.593,8.908,177.479,9.088,177.396,9.289"/>
</g>
</svg>
